<?xml version="1.0" encoding="UTF-8" standalone="no"?>
<svg
   xmlns:dc="http://purl.org/dc/elements/1.1/"
   xmlns:cc="http://creativecommons.org/ns#"
   xmlns:rdf="http://www.w3.org/1999/02/22-rdf-syntax-ns#"
   xmlns:svg="http://www.w3.org/2000/svg"
   xmlns="http://www.w3.org/2000/svg"
   viewBox="0 0 793.70667 1122.52"
   height="1122.52"
   width="793.70667"
   xml:space="preserve"
   id="svg2"
   version="1.1"><metadata
     id="metadata8"><rdf:RDF><cc:Work
         rdf:about=""><dc:format>image/svg+xml</dc:format><dc:type
           rdf:resource="http://purl.org/dc/dcmitype/StillImage" /></cc:Work></rdf:RDF></metadata><defs
     id="defs6"><clipPath
       id="clipPath20"
       clipPathUnits="userSpaceOnUse"><path
         id="path18"
         d="m 117.414,4563.8 c 0,2213.11 2010.306,3311.72 5292.276,3311.72 179.51,0 360.62,-1.92 543.07,-5.45 L 5952.76,0 H 1785.88 C 784.492,1673.08 117.414,3320.12 117.414,4563.8 Z" /></clipPath><radialGradient
       id="radialGradient34"
       gradientTransform="matrix(6221.75,0,0,-6221.75,4424.25,3496.54)"
       gradientUnits="userSpaceOnUse"
       r="1"
       cy="0"
       cx="0"
       fy="0.99996698"
       fx="0.0081097698"><stop
         id="stop22"
         offset="0"
         style="stop-opacity:1;stop-color:#070a0f" /><stop
         id="stop24"
         offset="0.18"
         style="stop-opacity:1;stop-color:#3d2b79" /><stop
         id="stop26"
         offset="0.4"
         style="stop-opacity:1;stop-color:#bb1b83" /><stop
         id="stop28"
         offset="0.6"
         style="stop-opacity:1;stop-color:#ed3044" /><stop
         id="stop30"
         offset="0.8"
         style="stop-opacity:1;stop-color:#f57540" /><stop
         id="stop32"
         offset="1"
         style="stop-opacity:1;stop-color:#f9af59" /></radialGradient></defs><g
     transform="matrix(1.3333333,0,0,-1.3333333,0,1122.52)"
     id="g10"><g
       transform="scale(0.1)"
       id="g12"><g
         id="g14"><g
           clip-path="url(#clipPath20)"
           id="g16"><path
             id="path36"
             style="fill:url(#radialGradient34);fill-opacity:1;fill-rule:nonzero;stroke:none"
             d="m 10577.7,3496.54 c 0,-3398.4306 -2755.01,-6153.44 -6153.45,-6153.44 -3398.43,0 -6153.41,2755.0094 -6153.41,6153.44 0,3398.44 2754.98,6153.41 6153.41,6153.41 3398.44,0 6153.45,-2754.97 6153.45,-6153.41" /></g></g></g></g></svg>