<svg xmlns="http://www.w3.org/2000/svg" xml:space="preserve" viewBox="0 0 283.5 283.5"><path fill="#414141" d="M141.7 5c36.5 0 70.9 14.2 96.7 40.1 25.8 25.8 40.1 60.2 40.1 96.7s-14.2 70.9-40.1 96.7-60.2 40.1-96.7 40.1-70.9-14.2-96.7-40.1-40-60.2-40-96.8S19.2 70.8 45.1 45c25.8-25.8 60.1-40 96.6-40m0-5C63.5 0 0 63.5 0 141.7s63.5 141.7 141.7 141.7S283.5 220 283.5 141.7 220 0 141.7 0" style="fill:#414141"/><g fill="#414141"><path d="M163.7 208.1h-9v22.6h8.8c6.9 0 11.1-5 11.1-11.6-.1-6.6-4.4-11-10.9-11m-.4 18.7h-3.7v-14.7h3.7c4.4 0 6.2 3.4 6.2 7.1 0 4.4-1.9 7.6-6.2 7.6m-45.8-18.7-7.7 22.6h4.8l1.8-5.2h8.3l1.9 5.2h5.1l-8-22.6zm-.1 13.4c1.3-4.1 2.4-7.6 3-9.8.5 2 1.6 5.1 3.2 9.8zM139.3 221h10.8v-4h-10.8v-4.9h11.3v-4h-16.1v22.6h16.1v-4h-11.3zM159 81c-3.6 1.4-7.1 3.6-10.3 6.4l-.2.2c-2.1 1.8-4.3 3.7-6.3 5.7-2-2-4.2-3.9-6.3-5.7l-.2-.1c-3.2-2.8-6.7-5-10.3-6.4-13.4-5.3-28.8-1.7-38.5 9-8 8.9-11 21.7-7.9 34.3.5 2 1.2 4.2 2 6.3 3.1 8.1 8.2 16.4 15.6 25.2 6.3 7.4 13.6 14.7 22.6 22.2 3.2 2.7 6.6 5.4 10 7.9 1.9 1.4 3.7 2.8 5.6 4.1 1.1.8 4.1 2.7 5.5 3.5.2.2.4.4.6.5.4.2.8.3 1.3.3h.1q.6 0 1.2-.3c.2-.1.5-.3.6-.5 1.4-.9 4.3-2.8 5.5-3.5 1.8-1.3 3.7-2.7 5.6-4.1 3.4-2.6 6.7-5.2 10-7.9 8.9-7.5 16.3-14.8 22.6-22.2 7.4-8.8 12.5-17.1 15.6-25.2.8-2.2 1.5-4.3 2-6.3 3.1-12.6.2-25.5-7.9-34.3-9.7-10.8-25.2-14.4-38.5-9.1m41.4 42.1c-.4 1.8-1.1 3.8-1.8 5.7-2.9 7.6-7.7 15.3-14.8 23.7-6.1 7.2-13.2 14.3-22 21.6-3.1 2.6-6.4 5.3-9.8 7.8-1.8 1.4-3.7 2.7-5.5 4-.7.5-2.7 1.8-4.5 2.9-1.8-1.1-3.7-2.4-4.5-2.9-1.8-1.3-3.6-2.6-5.5-4-3.3-2.5-6.6-5.1-9.8-7.8-8.7-7.3-15.9-14.4-22-21.6-7.1-8.4-11.9-16.2-14.8-23.7-.7-2-1.4-3.9-1.8-5.7-2.7-11-.2-22.1 6.7-29.8 5.7-6.3 13.8-9.8 22.1-9.8 3.7 0 7.3.7 10.9 2.1 3.1 1.2 6.1 3.1 8.9 5.5l.2.1c2.6 2.3 5.3 4.6 7.6 7.2l.1.1c.5.5 1.2.8 1.9.8s1.4-.4 1.9-.9c2.3-2.6 5-4.9 7.6-7.2l.2-.2c2.8-2.4 5.8-4.3 8.9-5.5 11.4-4.5 24.7-1.5 32.9 7.7 7.1 7.8 9.6 18.9 6.9 29.9m28.1-54.6h-13.4V55c0-1.4-1.1-2.5-2.5-2.5s-2.5 1.1-2.5 2.5v13.4h-13.4c-1.4 0-2.5 1.1-2.5 2.5s1.1 2.5 2.5 2.5h13.4v13.4c0 1.4 1.1 2.5 2.5 2.5s2.5-1.1 2.5-2.5V73.5h13.4c1.4 0 2.5-1.1 2.5-2.5s-1.1-2.5-2.5-2.5" style="fill:#414141"/><path d="M156.7 132h-9.6l1.9-23.6c.1-1.2-.6-2.3-1.8-2.6-1.1-.3-2.3.2-2.9 1.2l-18.9 35c-.4.8-.4 1.7.1 2.5s1.3 1.2 2.2 1.2l10.3-.1-2.6 21.6v.1l-.3 4.2c-.1 1.2.6 2.2 1.8 2.6.2.1.5.1.7.1.9 0 1.7-.5 2.2-1.3l2-3.7v-.1l17.2-33.6c.4-.8.4-1.7-.1-2.4s-1.3-1.1-2.2-1.1m-15.3 27 1.9-15.6c.1-.7-.1-1.4-.6-2-.5-.5-1.2-.8-1.9-.8l-8.9.1 11.2-20.8-1.2 14.4c-.1.7.2 1.4.7 1.9s1.1.8 1.8.8h8.2z" style="fill:#414141"/></g></svg>